# xmcd
#
# Track frame offsets: 
#        150
#        21787
#        35232
#        51526
#        66308
#
# Disc length: 1104 seconds
#
# Revision: 0
# Processed by: cddbd v1.5.2PL0 Copyright (c) Steve Scherf et al.
# Submitted via: ExactAudioCopy v1.0b3
#
DISCID=49044e05
DTITLE=Delta Rae - Chasing Twisters
DYEAR=2013
DGENRE=Alt. Rock
TTITLE0=Chasing Twisters
TTITLE1=Run
TTITLE2=If I Loved You (Feat Lindsey Buckingham)
TTITLE3=Dance in the Graveyards
TTITLE4=I Will Never Die
EXTD=
EXTT0=
EXTT1=
EXTT2=
EXTT3=
EXTT4=
PLAYORDER=
